<svg xmlns="http://www.w3.org/2000/svg" viewBox="0 0 960 540">
  <defs>
    <linearGradient id="bg" x1="0" y1="0" x2="1" y2="1">
      <stop offset="0%" stop-color="#020617" />
      <stop offset="100%" stop-color="#0f172a" />
    </linearGradient>
    <linearGradient id="blade" x1="0" y1="0" x2="1" y2="0">
      <stop offset="0%" stop-color="#22d3ee" />
      <stop offset="100%" stop-color="#a78bfa" />
    </linearGradient>
  </defs>
  <rect width="960" height="540" fill="url(#bg)" />
  <g opacity="0.18" stroke="#22d3ee">
    <path d="M0 80h960M0 180h960M0 280h960M0 380h960M0 480h960" />
    <path d="M80 0v540M240 0v540M400 0v540M560 0v540M720 0v540M880 0v540" />
  </g>
  <circle cx="320" cy="270" r="110" fill="#22d3ee" opacity="0.16" />
  <circle cx="640" cy="270" r="110" fill="#a78bfa" opacity="0.16" />
  <rect x="235" y="250" width="490" height="26" rx="13" fill="url(#blade)" transform="rotate(-18 480 263)" />
  <text x="480" y="150" text-anchor="middle" fill="#e2e8f0" font-size="34" font-family="Segoe UI, Microsoft JhengHei, sans-serif" font-weight="700">CYBER BLADE DASH</text>
  <text x="480" y="196" text-anchor="middle" fill="#67e8f9" font-size="24" font-family="Segoe UI, Microsoft JhengHei, sans-serif">ýZIÊ</text>
</svg>
